<?xml version="1.0" encoding="UTF-8" standalone="no"?>
<svg
   xmlns:dc="http://purl.org/dc/elements/1.1/"
   xmlns:cc="http://creativecommons.org/ns#"
   xmlns:rdf="http://www.w3.org/1999/02/22-rdf-syntax-ns#"
   xmlns:svg="http://www.w3.org/2000/svg"
   xmlns="http://www.w3.org/2000/svg"
   xmlns:sodipodi="http://sodipodi.sourceforge.net/DTD/sodipodi-0.dtd"
   xmlns:inkscape="http://www.inkscape.org/namespaces/inkscape"
   version="1.1"
   id="Layer_1"
   x="0px"
   y="0px"
   viewBox="0 0 500 500"
   style="enable-background:new 0 0 500 500;"
   xml:space="preserve"
   sodipodi:docname="menu-icon2.svg"
   inkscape:version="1.0.1 (c497b03c, 2020-09-10)"><metadata
   id="metadata41"><rdf:RDF><cc:Work
       rdf:about=""><dc:format>image/svg+xml</dc:format><dc:type
         rdf:resource="http://purl.org/dc/dcmitype/StillImage" /><dc:title></dc:title></cc:Work></rdf:RDF></metadata><defs
   id="defs39" /><sodipodi:namedview
   pagecolor="#ffffff"
   bordercolor="#666666"
   borderopacity="1"
   objecttolerance="10"
   gridtolerance="10"
   guidetolerance="10"
   inkscape:pageopacity="0.54901961"
   inkscape:pageshadow="2"
   inkscape:window-width="1278"
   inkscape:window-height="842"
   id="namedview37"
   showgrid="false"
   inkscape:zoom="0.76642311"
   inkscape:cx="182.58912"
   inkscape:cy="271.00425"
   inkscape:window-x="94"
   inkscape:window-y="23"
   inkscape:window-maximized="0"
   inkscape:current-layer="XMLID_1_" />
<style
   type="text/css"
   id="style10">
	.st0{fill:url(#SVGID_1_);}
	.st1{fill:url(#SVGID_2_);}
	.st2{fill:#FFFFFF;}
</style>
<g
   id="XMLID_1_">
	
		<radialGradient
   id="SVGID_1_"
   cx="0"
   cy="0"
   r="1.4258"
   gradientTransform="matrix(128 0 0 128 250 250)"
   gradientUnits="userSpaceOnUse">
		<stop
   offset="0"
   style="stop-color:#DC001F"
   id="stop12" />
		<stop
   offset="0.6421"
   style="stop-color:#D5001D"
   id="stop14" />
		<stop
   offset="0.8238"
   style="stop-color:#AE0017"
   id="stop16" />
		<stop
   offset="1"
   style="stop-color:#590E0A"
   id="stop18" />
	</radialGradient>
	<path
   class="st0"
   d="M 24.442843,250 C 24.442843,374.58171 125.41829,475.55716 250,475.55716 374.58171,475.55716 475.55716,374.58171 475.55716,250 475.55716,125.41829 374.58171,24.442843 250,24.442843 125.41829,24.442843 24.442843,125.41829 24.442843,250 Z"
   id="path21"
   style="fill:#ffffff;fill-opacity:1;stroke-width:1.23593" />
	
		<linearGradient
   id="SVGID_2_"
   gradientUnits="userSpaceOnUse"
   x1="0.2648"
   y1="-5.079332e-003"
   x2="1.6906"
   y2="-5.079332e-003"
   gradientTransform="matrix(0.1695 -74.877 174.5649 7.270000e-002 250.0558 204.4093)">
		<stop
   offset="0"
   style="stop-color:#D4001C"
   id="stop23" />
		<stop
   offset="0.5313"
   style="stop-color:#EC8A6C"
   id="stop25" />
		<stop
   offset="0.8876"
   style="stop-color:#FCEFE7"
   id="stop27" />
		<stop
   offset="1"
   style="stop-color:#FDF7F1"
   id="stop29" />
	</linearGradient>
	<path
   class="st1"
   d="m 98.227842,130.73279 c 0,50.42593 67.605348,36.58352 150.907008,36.58352 83.30166,0 150.90701,13.84241 150.90701,-36.58352 0,-50.302335 -67.60535,-91.088012 -150.90701,-91.088012 C 165.83319,39.521185 98.227842,80.306862 98.227842,130.73279 Z"
   id="path32"
   style="fill:#ffffff;fill-opacity:1;stroke-width:1.23593" />
	<path
   id="XMLID_2_"
   class="st2"
   d="m 182.27106,379.8962 c -0.37078,-0.49437 51.53826,-57.71791 112.09881,-117.28972 60.18978,-59.57181 111.23367,-112.346 111.48086,-112.346 -1.97749,-41.40364 -32.38136,-61.425703 -59.819,-64.762713 -17.30301,-3.584196 -145.59251,-8.157136 -218.51236,3.213417 -13.59522,1.606708 -27.19045,3.460603 -40.909267,5.685276 -0.494371,0.123593 -5.932462,5.68528 -10.752587,11.49415 -4.943719,5.93246 -9.269473,12.11211 -8.775101,11.98851 41.774425,-5.93246 83.425255,-9.76384 125.199675,-11.61774 42.88675,-1.97748 85.64992,-1.7303 128.53668,0.49438 0.86515,0.74155 -47.95407,54.87527 -108.14384,113.70552 -59.819,58.70666 -113.952716,113.08756 -119.267214,119.3908 -0.370779,43.13395 36.212734,59.819 55.864024,63.65038 91.08801,8.89869 183.04117,5.68528 274.25278,-9.02229 0,0 8.03354,-9.14588 9.02229,-10.75258 0.98874,-1.73031 8.03354,-12.11211 7.78635,-12.11211 -87.38022,12.48288 -174.76045,16.31427 -261.15193,11.61773 1.97749,-1.6067 1.97749,-2.10108 3.08983,-3.33701 z"
   style="fill:#5d9bc7;fill-opacity:1;stroke-width:1.23593" />
</g>
</svg>
