<svg height="500" viewBox="0 0 500 500" width="500" xmlns="http://www.w3.org/2000/svg"><path d="m250 475.556641c-124.581589 0-225.556641-100.975068-225.556641-225.556641 0-49.352234 15.846211-94.99942 42.728516-132.132812 41.744301-5.925202 83.364914-9.7529 125.109375-11.605469 42.886703-1.977478 85.650391-1.730561 128.537109.49414.865174.741547-47.95288 54.874909-108.142578 113.705079-59.818939 58.706604-113.953087 113.087371-119.267578 119.390625-.370781 43.133911 36.212006 59.819 55.863281 63.65039 90.972275 8.88739 182.808655 5.692932 273.90625-8.966797-41.373809 49.520935-103.593719 81.021485-173.177734 81.021485zm2.287109-90.386719c-24.432006.031006-48.807891-.616608-73.105468-1.9375 1.977493-1.60672 1.977508-2.100006 3.089843-3.335938-.370773-.494384 51.537171-57.717315 112.097657-117.289062 60.189727-59.571747 111.235229-112.347656 111.482422-112.347656-1.977509-41.403626-32.382721-61.424714-59.820313-64.761719-17.302979-3.584198-145.591934-8.157654-218.511719 3.212891-13.559074 1.602447-27.119095 3.451171-40.800781 5.667968 41.078827-43.088348 99.041885-69.935547 163.28125-69.935547 124.581573 0 225.556641 100.975037 225.556641 225.556641 0 44.80896-13.062195 86.564758-35.587891 121.666016-62.6828 8.937408-125.365234 13.424865-187.681641 13.503906z" fill="#fff" fill-rule="evenodd"/></svg>