<svg height="1161" viewBox="0 0 1920 1161" width="1920" xmlns="http://www.w3.org/2000/svg"><g fill="#fff" fill-rule="evenodd"><path d="m71.532516 543.989929c0 21.675415 8.610161 42.463013 23.93615 57.789795 15.325996 15.326843 36.11274 23.937317 57.787026 23.937317 21.674285 0 42.461029-8.610474 57.787033-23.937317 15.325988-15.326782 23.936142-36.11438 23.936142-57.789795 0-21.675293-8.610154-42.462951-23.936142-57.789795-15.326004-15.326843-36.112748-23.937317-57.787033-23.937317-21.674286 0-42.46103 8.610474-57.787026 23.937317-15.325989 15.326844-23.93615 36.114502-23.93615 57.789795z" opacity=".898327"/><path d="m465.505524 196.60022c0 11.467468 4.555206 22.465332 12.663543 30.574035 8.108307 8.108704 19.105652 12.664185 30.572571 12.664185s22.464234-4.555481 30.572571-12.664185c8.108276-8.108703 12.663513-19.106567 12.663513-30.574035 0-11.467469-4.555237-22.465332-12.663513-30.574036-8.108337-8.108704-19.105652-12.664184-30.572571-12.664184s-22.464264 4.55548-30.572571 12.664184c-8.108337 8.108704-12.663543 19.106567-12.663543 30.574036z" opacity=".498415"/><path d="m921.414001 463.351196c0 15.928528 6.32721 31.20459 17.589905 42.467835 11.262635 11.263122 26.538025 17.590698 42.46576 17.590698 15.927734 0 31.203063-6.327576 42.465759-17.590698 11.262695-11.263245 17.589844-26.539307 17.589844-42.467835s-6.327149-31.20459-17.589844-42.467834c-11.262696-11.263184-26.538025-17.590698-42.465759-17.590698-15.927735 0-31.203125 6.327514-42.46576 17.590698-11.262695 11.263244-17.589905 26.539306-17.589905 42.467834z" opacity=".803177"/><path d="m1405.223145 926.999268c0 45.397583 18.033203 88.935791 50.13269 121.036743 32.099365 32.100952 75.635498 50.13501 121.030884 50.13501 45.395385 0 88.931518-18.034058 121.030884-50.13501 32.099365-32.100952 50.13269-75.63916 50.13269-121.036743 0-45.397644-18.033325-88.935791-50.13269-121.036805-32.099366-32.100891-75.635499-50.13507-121.030884-50.13507-45.395386 0-88.931519 18.034179-121.030884 50.13507-32.099487 32.101014-50.13269 75.639161-50.13269 121.036805z" opacity=".79986"/><path d="m1444.105957 317.706726c0 22.698853 9.016602 44.467957 25.066284 60.518433 16.049683 16.050476 37.817749 25.067505 60.515503 25.067505 22.697632 0 44.465698-9.017029 60.515381-25.067505 16.049805-16.050476 25.066406-37.81958 25.066406-60.518433 0-22.698791-9.016601-44.467834-25.066406-60.518372-16.049683-16.050415-37.817749-25.067504-60.515381-25.067504-22.697754 0-44.46582 9.017089-60.515503 25.067504-16.049682 16.050538-25.066284 37.819581-25.066284 60.518372z" opacity=".600641"/><path d="m1338.241821 883.365234-1038.260376-305.932495 1032.027222 333.240845c7.717163 2.374634 15.335449-1.780945 17.017456-9.399597 1.681885-7.519715-3.067139-15.632996-10.784302-18.00763z" stroke="#fff" stroke-linecap="round" stroke-linejoin="round" stroke-width="3.351127"/><path d="m1374.827271 284.771118-764.999573-84.783752 764.038879 104.678711c5.698609.700744 10.514282-3.15802 10.742432-8.701355.240356-5.47406-4.095459-10.562256-9.794068-11.262879z" stroke="#fff" stroke-linecap="round" stroke-linejoin="round" stroke-width="3.351127"/></g><path d="m1335.174683 897.019409-1035.0943-319.58667" fill="none"/><path d="m862.149841 463.252258-562.168396 57.288147 558.804505-43.040344c4.155395-.395752 8.310852-3.858765 9.201294-7.816467.890442-3.957764-1.682007-6.827088-5.837403-6.431336z" style="fill:#fff;fill-rule:evenodd;stroke:#fff;stroke-width:3.351127;stroke-linecap:round;stroke-linejoin:round;opacity:.704046"/><path d="m860.467896 470.37616-560.387513 50.164245" fill="none"/><path d="m447.39978 256.856628-191.544891 194.621399 196.195007-192.345703c.49469-.49469-.197906-1.385193-1.4841-1.978821-1.286194-.593689-2.770264-.692627-3.166016-.296875z" style="fill:#fff;fill-rule:evenodd;stroke:#fff;stroke-width:3.351127;stroke-linecap:round;stroke-linejoin:round;opacity:.801518"/><path d="m449.774292 257.945007-193.820465 193.434082" fill="none"/></svg>