<svg height="100" viewBox="0 0 100 100" width="100" xmlns="http://www.w3.org/2000/svg" xmlns:xlink="http://www.w3.org/1999/xlink"><linearGradient id="a"><stop offset=".00001" stop-color="#888a85"/><stop offset="1" stop-color="#d3d7cf" stop-opacity="0"/></linearGradient><radialGradient id="b" cx="33.056064" cy="31.530978" gradientUnits="userSpaceOnUse" r="22.671361" xlink:href="#a"/><radialGradient id="c" cx="26.394402" cy="18.152305" gradientUnits="userSpaceOnUse" r="40.22476" xlink:href="#a"/><path d="m56.508335 73.768845-18.592647-1.269516s-.722699.669006-.730095 1.363762c-.009041.694755.699413 1.336906.699413 1.336906l18.623329-1.399368h9.378376l-9.378376-.03151z" fill="#646464" fill-rule="evenodd" stroke="#272727" stroke-linejoin="round" stroke-width="2.371416"/><path d="m38.599213 54.55788-1.26952 18.592923s.669002.722427 1.363758.730095c.694755.00904 1.33691-.699685 1.33691-.699685l-1.399372-18.623333v-9.378097l-.031506 9.378097z" fill-rule="evenodd" stroke="#000" stroke-linejoin="round" stroke-width="2.371416"/><path d="m27.14135 49.556213c3.284609 6.590905 11.290687 9.271328 17.881599 5.986718 6.590908-3.284604 9.271324-11.290692 5.986721-17.881592-3.284607-6.590912-11.290695-9.271332-17.881599-5.986725-6.590912 3.284607-9.271328 11.290695-5.986721 17.881599z" fill="none" stroke="url(#b)" stroke-width="6.346412"/><path d="m15.742375 55.234093c6.421445 12.885299 22.073429 18.125557 34.95874 11.704109 12.885299-6.421448 18.125553-22.073444 11.704109-34.95874-6.421444-12.8853-22.073441-18.12555-34.95874-11.70411-12.885312 6.421448-18.125553 22.073441-11.704109 34.958741z" fill="none" stroke="url(#c)" stroke-width="6.345981"/><path d="m74.92955 66.544197h18.177414v13.283485h-18.177414z" fill="#eeeded"/><path d="m83.605133 75.1436h2.288071v3.749886h-2.288071z" fill="#707171"/><path d="m83.605133 67.516716h2.288071v3.749886h-2.288071z" fill="#707171"/><g fill="#0c1d5e"><path d="m49.270565 64.319687h29.342907v18.177406h-29.342907z"/><path d="m48.868618 64.319687h29.744854v18.177406h-29.744854z"/><path d="m46.193329 64.314743h6.800644v18.193909h-6.800644z"/><path d="m43.700001 79.300003c0 1.767304 1.432689 3.199997 3.200001 3.199997h23.900001c1.767311 0 3.199997-1.432693 3.199997-3.199997v-11.800003c0-1.767311-1.432686-3.199997-3.199997-3.199997h-23.900001c-1.767312 0-3.200001 1.432686-3.200001 3.199997z" fill-rule="evenodd"/></g></svg>